<svg xmlns="http://www.w3.org/2000/svg" viewBox="0 0 850 766.39"><defs><style>.cls-1{fill:#828487;}</style></defs><g id="Layer_2" data-name="Layer 2"><g id="Layer_1-2" data-name="Layer 1"><path class="cls-1" d="M259.82,553.32C243,512,241.27,470.4,256,427.54c12.53-36.49,35.31-65.5,66.73-87.66,62.19-43.88,147-41.85,208,5.38q52.29,40.5,65.92,105.72c7.39,35.45,3.26,69-10.36,102.34Z"/><path class="cls-1" d="M745.32,639.31V659.7h83.32v21.86H618V702H743.55v22.21H532.7v21.08h19.52v21.15H297.57l-.07-21.15h19.4v-20.3H106.21V702.35H231.6V682.2H21.15V660.06H104.3V640.23H.19V617.31H62V597.48H0V574.64H59.79v.14H849.72v21.83h-62v20.44H850v22.26Z"/><path class="cls-1" d="M83.57,553.32H40.7V539.69c0-86.91-.34-173.82.14-260.72.26-48.19,21.53-85.77,62.81-110.44q126.95-75.86,254.91-150C401-6.09,445-6.21,487.48,18.39c84.64,49,168.81,98.81,252.94,148.69,43.5,25.79,65.19,64.67,65.34,115.15.24,84.94.06,169.88.07,254.82v16.27H763V537.68q0-128,0-256c0-34.81-14.92-61-45-78.65q-123-72.15-245.78-144.64c-32.9-19.52-64.8-19.67-97.75-.14-81.75,48.5-163.8,96.49-245.77,144.63-30,17.62-45.2,43.46-45.11,78.53.19,85.33.06,170.66.06,256Z"/><path class="cls-1" d="M741.87,285.83,599.45,395.89a197.27,197.27,0,0,0-43.19-56.63l0,0a.27.27,0,0,0,0-.07S630.47,245.51,668,198c17.16,10.51,33.78,20.18,49.66,30.78C739.56,243.36,741.87,285.83,741.87,285.83Z"/><path class="cls-1" d="M278.21,351.14l-.14.21a196.82,196.82,0,0,0-32.93,48.34.28.28,0,0,1-.07.09L104.26,315.83l.21-37.25c.28-22.4,9.6-40.27,27.94-53,9.3-6.47,19.48-11.71,30.41-18.2C201.29,255.28,240.38,304.07,278.21,351.14Z"/><path class="cls-1" d="M565.06,137.67,511.13,308.34a.15.15,0,0,0-.1,0l0,0a196.06,196.06,0,0,0-57.48-18.25h0s3.73-141.33,5.69-214.55Z"/><path class="cls-1" d="M379.35,292.65h0A196.16,196.16,0,0,0,334,309s-.05,0-.07.05a.1.1,0,0,0-.07,0h0L274.67,141.19l83.23-48.6Z"/><path class="cls-1" d="M228.48,518.79v.07S146.25,509.63,105,505.08V422.84l122.29,36.57v.09a199.81,199.81,0,0,0,1.16,59.29Z"/><path class="cls-1" d="M741.68,421v84l-123.56,13.1a196.1,196.1,0,0,0,2.72-32.74c0-6.16-.29-12.27-.85-18.29Z"/></g></g></svg>